# xmcd
#
# Track frame offsets:
#	150
#	11730
#	27685
#	39520
#	57380
#	71415
#	85840
#	100655
#	117737
#	133945
#	149512
#
# Disc length: 2189 seconds
#
# Revision: 1
# Processed by: cddbd v1.5.2PL0 Copyright (c) Steve Scherf et al.
# Submitted via: audiograbber 1.83.01
#
DISCID=a3088b0b
DTITLE=Strokes, The - Is this it
DYEAR=2001
DGENRE=Rock
TTITLE0=Is this it
TTITLE1=The modern age
TTITLE2=Soma
TTITLE3=Barely legal
TTITLE4=Someday
TTITLE5=Alone, together
TTITLE6=Last nite
TTITLE7=Hard to explain
TTITLE8=New York City cops
TTITLE9=Trying your luck
TTITLE10=Take it or leave it
EXTD=
EXTT0=
EXTT1=
EXTT2=
EXTT3=
EXTT4=
EXTT5=
EXTT6=
EXTT7=
EXTT8=
EXTT9=
EXTT10=
PLAYORDER=
